<?xml version="1.0" encoding="UTF-8" standalone="no"?>
<!DOCTYPE svg PUBLIC "-//W3C//DTD SVG 1.1//EN"
 "http://www.w3.org/Graphics/SVG/1.1/DTD/svg11.dtd">
<!-- Generated by graphviz version 11.0.0 (20240428.1522)
 -->
<!-- Title: G Pages: 1 -->
<svg width="770pt" height="332pt"
 viewBox="0.00 0.00 770.23 332.00" xmlns="http://www.w3.org/2000/svg" xmlns:xlink="http://www.w3.org/1999/xlink">
<g id="graph0" class="graph" transform="scale(1 1) rotate(0) translate(4 328)">
<title>G</title>
<polygon fill="white" stroke="none" points="-4,4 -4,-328 766.23,-328 766.23,4 -4,4"/>
<!-- :feature:home -->
<g id="node1" class="node">
<title>:feature:home</title>
<ellipse fill="none" stroke="black" cx="192.06" cy="-306" rx="62.61" ry="18"/>
<text text-anchor="middle" x="192.06" y="-300.95" font-family="Times,serif" font-size="14.00">:feature:home</text>
</g>
<!-- :core:ui -->
<g id="node2" class="node">
<title>:core:ui</title>
<ellipse fill="none" stroke="black" cx="84.06" cy="-234" rx="39.07" ry="18"/>
<text text-anchor="middle" x="84.06" y="-228.95" font-family="Times,serif" font-size="14.00">:core:ui</text>
</g>
<!-- :feature:home&#45;&gt;:core:ui -->
<g id="edge1" class="edge">
<title>:feature:home&#45;&gt;:core:ui</title>
<path fill="none" stroke="black" d="M167.55,-289.12C152.05,-279.07 131.87,-265.99 115.23,-255.2"/>
<polygon fill="black" stroke="black" points="117.47,-252.48 107.18,-249.98 113.66,-258.36 117.47,-252.48"/>
</g>
<!-- :core:designsystem -->
<g id="node3" class="node">
<title>:core:designsystem</title>
<ellipse fill="none" stroke="black" cx="82.06" cy="-162" rx="82.06" ry="18"/>
<text text-anchor="middle" x="82.06" y="-156.95" font-family="Times,serif" font-size="14.00">:core:designsystem</text>
</g>
<!-- :feature:home&#45;&gt;:core:designsystem -->
<g id="edge2" class="edge">
<title>:feature:home&#45;&gt;:core:designsystem</title>
<path fill="none" stroke="black" d="M181.78,-288.02C170.41,-269.68 151.15,-239.86 132.06,-216 124.47,-206.52 115.55,-196.69 107.35,-188.12"/>
<polygon fill="black" stroke="black" points="110.01,-185.83 100.53,-181.1 104.99,-190.71 110.01,-185.83"/>
</g>
<!-- :core:domain -->
<g id="node4" class="node">
<title>:core:domain</title>
<ellipse fill="none" stroke="black" cx="337.06" cy="-234" rx="60.05" ry="18"/>
<text text-anchor="middle" x="337.06" y="-228.95" font-family="Times,serif" font-size="14.00">:core:domain</text>
</g>
<!-- :feature:home&#45;&gt;:core:domain -->
<g id="edge3" class="edge">
<title>:feature:home&#45;&gt;:core:domain</title>
<path fill="none" stroke="red" stroke-width="2" d="M223.17,-289.98C244.45,-279.71 272.9,-265.97 296.04,-254.8"/>
<polygon fill="red" stroke="red" stroke-width="2" points="296.04,-258.69 303.53,-251.19 293,-252.38 296.04,-258.69"/>
</g>
<!-- :core:common -->
<g id="node5" class="node">
<title>:core:common</title>
<ellipse fill="none" stroke="black" cx="697.06" cy="-18" rx="65.17" ry="18"/>
<text text-anchor="middle" x="697.06" y="-12.95" font-family="Times,serif" font-size="14.00">:core:common</text>
</g>
<!-- :feature:home&#45;&gt;:core:common -->
<g id="edge4" class="edge">
<title>:feature:home&#45;&gt;:core:common</title>
<path fill="none" stroke="black" d="M247.45,-297.14C337.13,-282.91 518.08,-247.83 657.06,-180 705.95,-156.14 731.37,-156.48 756.06,-108 763.32,-93.74 762.58,-86.61 756.06,-72 750.82,-60.25 741.55,-50.02 731.89,-41.77"/>
<polygon fill="black" stroke="black" points="734.21,-39.14 724.2,-35.69 729.87,-44.64 734.21,-39.14"/>
</g>
<!-- :core:model -->
<g id="node6" class="node">
<title>:core:model</title>
<ellipse fill="none" stroke="black" cx="314.06" cy="-18" rx="55.45" ry="18"/>
<text text-anchor="middle" x="314.06" y="-12.95" font-family="Times,serif" font-size="14.00">:core:model</text>
</g>
<!-- :feature:home&#45;&gt;:core:model -->
<g id="edge5" class="edge">
<title>:feature:home&#45;&gt;:core:model</title>
<path fill="none" stroke="black" d="M195.24,-287.66C203.11,-247.62 225.93,-146.43 268.06,-72 273.76,-61.93 281.57,-52.03 289.13,-43.57"/>
<polygon fill="black" stroke="black" points="291.53,-46.13 295.79,-36.43 286.41,-41.35 291.53,-46.13"/>
</g>
<!-- :core:ui&#45;&gt;:core:designsystem -->
<g id="edge6" class="edge">
<title>:core:ui&#45;&gt;:core:designsystem</title>
<path fill="none" stroke="black" d="M83.57,-215.7C83.36,-208.41 83.11,-199.73 82.88,-191.54"/>
<polygon fill="black" stroke="black" points="86.38,-191.51 82.59,-181.62 79.38,-191.71 86.38,-191.51"/>
</g>
<!-- :core:domain&#45;&gt;:core:common -->
<g id="edge7" class="edge">
<title>:core:domain&#45;&gt;:core:common</title>
<path fill="none" stroke="black" d="M389.11,-224.62C488.21,-207.49 697.91,-165.2 740.06,-108 754.74,-88.08 739.24,-62.37 722.91,-43.71"/>
<polygon fill="black" stroke="black" points="725.61,-41.47 716.23,-36.53 720.48,-46.24 725.61,-41.47"/>
</g>
<!-- :core:domain&#45;&gt;:core:model -->
<g id="edge9" class="edge">
<title>:core:domain&#45;&gt;:core:model</title>
<path fill="none" stroke="black" d="M325.71,-216.14C310.87,-192.96 285.62,-149.41 276.06,-108 272.46,-92.41 271.16,-87.23 276.06,-72 279.2,-62.24 284.87,-52.75 290.89,-44.56"/>
<polygon fill="black" stroke="black" points="293.58,-46.81 297.05,-36.8 288.1,-42.46 293.58,-46.81"/>
</g>
<!-- :core:data -->
<g id="node7" class="node">
<title>:core:data</title>
<ellipse fill="none" stroke="black" cx="450.06" cy="-162" rx="47.26" ry="18"/>
<text text-anchor="middle" x="450.06" y="-156.95" font-family="Times,serif" font-size="14.00">:core:data</text>
</g>
<!-- :core:domain&#45;&gt;:core:data -->
<g id="edge8" class="edge">
<title>:core:domain&#45;&gt;:core:data</title>
<path fill="none" stroke="red" stroke-width="2" d="M362.42,-217.29C378.3,-207.45 398.96,-194.65 416.23,-183.96"/>
<polygon fill="red" stroke="red" stroke-width="2" points="416.72,-187.77 423.37,-179.53 413.03,-181.82 416.72,-187.77"/>
</g>
<!-- :core:data&#45;&gt;:core:common -->
<g id="edge11" class="edge">
<title>:core:data&#45;&gt;:core:common</title>
<path fill="none" stroke="black" d="M496.85,-158.86C567.18,-154.56 694.92,-142.13 723.06,-108 737.64,-90.31 727.96,-64.76 716.49,-45.57"/>
<polygon fill="black" stroke="black" points="719.45,-43.7 711.08,-37.19 713.56,-47.5 719.45,-43.7"/>
</g>
<!-- :core:data&#45;&gt;:core:model -->
<g id="edge10" class="edge">
<title>:core:data&#45;&gt;:core:model</title>
<path fill="none" stroke="black" d="M402.86,-159.84C364.75,-156.1 313.29,-144.11 287.06,-108 273.63,-89.51 283.31,-64.25 294.64,-45.37"/>
<polygon fill="black" stroke="black" points="297.47,-47.45 299.97,-37.15 291.59,-43.64 297.47,-47.45"/>
</g>
<!-- :core:network -->
<g id="node8" class="node">
<title>:core:network</title>
<ellipse fill="none" stroke="black" cx="652.06" cy="-90" rx="62.1" ry="18"/>
<text text-anchor="middle" x="652.06" y="-84.95" font-family="Times,serif" font-size="14.00">:core:network</text>
</g>
<!-- :core:data&#45;&gt;:core:network -->
<g id="edge12" class="edge">
<title>:core:data&#45;&gt;:core:network</title>
<path fill="none" stroke="red" stroke-width="2" d="M484.33,-149.13C516.91,-137.84 566.25,-120.74 603,-108"/>
<polygon fill="red" stroke="red" stroke-width="2" points="602.32,-111.94 610.62,-105.36 600.03,-105.33 602.32,-111.94"/>
</g>
<!-- :core:database -->
<g id="node9" class="node">
<title>:core:database</title>
<ellipse fill="none" stroke="black" cx="360.06" cy="-90" rx="63.63" ry="18"/>
<text text-anchor="middle" x="360.06" y="-84.95" font-family="Times,serif" font-size="14.00">:core:database</text>
</g>
<!-- :core:data&#45;&gt;:core:database -->
<g id="edge13" class="edge">
<title>:core:data&#45;&gt;:core:database</title>
<path fill="none" stroke="black" d="M430.09,-145.46C418.22,-136.24 402.95,-124.36 389.7,-114.05"/>
<polygon fill="black" stroke="black" points="392.15,-111.53 382.11,-108.15 387.86,-117.05 392.15,-111.53"/>
</g>
<!-- :core:datastore -->
<g id="node10" class="node">
<title>:core:datastore</title>
<ellipse fill="none" stroke="black" cx="507.06" cy="-90" rx="65.17" ry="18"/>
<text text-anchor="middle" x="507.06" y="-84.95" font-family="Times,serif" font-size="14.00">:core:datastore</text>
</g>
<!-- :core:data&#45;&gt;:core:datastore -->
<g id="edge14" class="edge">
<title>:core:data&#45;&gt;:core:datastore</title>
<path fill="none" stroke="black" d="M463.57,-144.41C470.28,-136.16 478.55,-126.01 486.07,-116.78"/>
<polygon fill="black" stroke="black" points="488.7,-119.09 492.3,-109.13 483.27,-114.67 488.7,-119.09"/>
</g>
<!-- :core:network&#45;&gt;:core:common -->
<g id="edge15" class="edge">
<title>:core:network&#45;&gt;:core:common</title>
<path fill="none" stroke="red" stroke-width="2" d="M662.95,-72.05C668.09,-64.06 674.35,-54.33 680.09,-45.4"/>
<polygon fill="red" stroke="red" stroke-width="2" points="682.17,-48.64 684.63,-38.34 676.28,-44.85 682.17,-48.64"/>
</g>
<!-- :core:network&#45;&gt;:core:model -->
<g id="edge16" class="edge">
<title>:core:network&#45;&gt;:core:model</title>
<path fill="none" stroke="black" d="M605.91,-77.67C597.65,-75.72 589.11,-73.76 581.06,-72 509.51,-56.34 426.74,-40.22 372.56,-29.93"/>
<polygon fill="black" stroke="black" points="373.41,-26.53 362.93,-28.11 372.1,-33.41 373.41,-26.53"/>
</g>
<!-- :core:database&#45;&gt;:core:common -->
<g id="edge18" class="edge">
<title>:core:database&#45;&gt;:core:common</title>
<path fill="none" stroke="black" d="M407.53,-77.72C416.02,-75.77 424.79,-73.79 433.06,-72 501.52,-57.16 580.28,-41.54 633.83,-31.13"/>
<polygon fill="black" stroke="black" points="634.23,-34.62 643.38,-29.28 632.9,-27.74 634.23,-34.62"/>
</g>
<!-- :core:database&#45;&gt;:core:model -->
<g id="edge17" class="edge">
<title>:core:database&#45;&gt;:core:model</title>
<path fill="none" stroke="black" d="M348.92,-72.05C343.67,-64.06 337.28,-54.33 331.41,-45.4"/>
<polygon fill="black" stroke="black" points="334.34,-43.49 325.92,-37.05 328.49,-47.33 334.34,-43.49"/>
</g>
<!-- :core:datastore&#45;&gt;:core:common -->
<g id="edge20" class="edge">
<title>:core:datastore&#45;&gt;:core:common</title>
<path fill="none" stroke="black" d="M545.05,-75C574.83,-64.03 616.45,-48.7 648.62,-36.85"/>
<polygon fill="black" stroke="black" points="649.54,-40.24 657.71,-33.5 647.12,-33.67 649.54,-40.24"/>
</g>
<!-- :core:datastore&#45;&gt;:core:model -->
<g id="edge19" class="edge">
<title>:core:datastore&#45;&gt;:core:model</title>
<path fill="none" stroke="black" d="M468.93,-75.17C437.94,-63.93 394.08,-48.02 360.95,-36.01"/>
<polygon fill="black" stroke="black" points="362.17,-32.73 351.58,-32.61 359.78,-39.31 362.17,-32.73"/>
</g>
</g>
</svg>
