<?xml version="1.0" encoding="UTF-8" standalone="no"?>
<!DOCTYPE svg PUBLIC "-//W3C//DTD SVG 1.1//EN"
 "http://www.w3.org/Graphics/SVG/1.1/DTD/svg11.dtd">
<!-- Generated by graphviz version 11.0.0 (20240428.1522)
 -->
<!-- Title: G Pages: 1 -->
<svg width="459pt" height="188pt"
 viewBox="0.00 0.00 459.10 188.00" xmlns="http://www.w3.org/2000/svg" xmlns:xlink="http://www.w3.org/1999/xlink">
<g id="graph0" class="graph" transform="scale(1 1) rotate(0) translate(4 184)">
<title>G</title>
<polygon fill="white" stroke="none" points="-4,4 -4,-184 455.1,-184 455.1,4 -4,4"/>
<!-- :core:data -->
<g id="node1" class="node">
<title>:core:data</title>
<ellipse fill="none" stroke="black" cx="222.18" cy="-162" rx="47.26" ry="18"/>
<text text-anchor="middle" x="222.18" y="-156.95" font-family="Times,serif" font-size="14.00">:core:data</text>
</g>
<!-- :core:model -->
<g id="node2" class="node">
<title>:core:model</title>
<ellipse fill="none" stroke="black" cx="151.18" cy="-18" rx="55.45" ry="18"/>
<text text-anchor="middle" x="151.18" y="-12.95" font-family="Times,serif" font-size="14.00">:core:model</text>
</g>
<!-- :core:data&#45;&gt;:core:model -->
<g id="edge1" class="edge">
<title>:core:data&#45;&gt;:core:model</title>
<path fill="none" stroke="black" d="M176.97,-156.33C120.24,-149.44 27.86,-134.4 7.18,-108 -2.69,-95.4 -1.98,-85.12 7.18,-72 25.29,-46.04 57.61,-32.76 87.04,-25.98"/>
<polygon fill="black" stroke="black" points="87.58,-29.44 96.67,-24 86.17,-22.59 87.58,-29.44"/>
</g>
<!-- :core:common -->
<g id="node3" class="node">
<title>:core:common</title>
<ellipse fill="none" stroke="black" cx="292.18" cy="-18" rx="65.17" ry="18"/>
<text text-anchor="middle" x="292.18" y="-12.95" font-family="Times,serif" font-size="14.00">:core:common</text>
</g>
<!-- :core:data&#45;&gt;:core:common -->
<g id="edge2" class="edge">
<title>:core:data&#45;&gt;:core:common</title>
<path fill="none" stroke="black" d="M267.63,-156.64C325.83,-150.01 421.74,-135.19 443.18,-108 472.79,-70.44 409.12,-45.46 355.55,-31.76"/>
<polygon fill="black" stroke="black" points="356.68,-28.43 346.13,-29.45 355.01,-35.23 356.68,-28.43"/>
</g>
<!-- :core:network -->
<g id="node4" class="node">
<title>:core:network</title>
<ellipse fill="none" stroke="black" cx="78.18" cy="-90" rx="62.1" ry="18"/>
<text text-anchor="middle" x="78.18" y="-84.95" font-family="Times,serif" font-size="14.00">:core:network</text>
</g>
<!-- :core:data&#45;&gt;:core:network -->
<g id="edge3" class="edge">
<title>:core:data&#45;&gt;:core:network</title>
<path fill="none" stroke="red" stroke-width="2" d="M193.73,-147.17C172.45,-136.83 143.05,-122.53 119.22,-110.95"/>
<polygon fill="red" stroke="red" stroke-width="2" points="122.31,-108.56 111.78,-107.34 119.25,-114.86 122.31,-108.56"/>
</g>
<!-- :core:database -->
<g id="node5" class="node">
<title>:core:database</title>
<ellipse fill="none" stroke="black" cx="222.18" cy="-90" rx="63.63" ry="18"/>
<text text-anchor="middle" x="222.18" y="-84.95" font-family="Times,serif" font-size="14.00">:core:database</text>
</g>
<!-- :core:data&#45;&gt;:core:database -->
<g id="edge4" class="edge">
<title>:core:data&#45;&gt;:core:database</title>
<path fill="none" stroke="black" d="M222.18,-143.7C222.18,-136.41 222.18,-127.73 222.18,-119.54"/>
<polygon fill="black" stroke="black" points="225.68,-119.62 222.18,-109.62 218.68,-119.62 225.68,-119.62"/>
</g>
<!-- :core:datastore -->
<g id="node6" class="node">
<title>:core:datastore</title>
<ellipse fill="none" stroke="black" cx="369.18" cy="-90" rx="65.17" ry="18"/>
<text text-anchor="middle" x="369.18" y="-84.95" font-family="Times,serif" font-size="14.00">:core:datastore</text>
</g>
<!-- :core:data&#45;&gt;:core:datastore -->
<g id="edge5" class="edge">
<title>:core:data&#45;&gt;:core:datastore</title>
<path fill="none" stroke="black" d="M250.87,-147.34C272.66,-136.96 302.94,-122.54 327.41,-110.89"/>
<polygon fill="black" stroke="black" points="328.61,-114.19 336.13,-106.74 325.6,-107.87 328.61,-114.19"/>
</g>
<!-- :core:network&#45;&gt;:core:model -->
<g id="edge7" class="edge">
<title>:core:network&#45;&gt;:core:model</title>
<path fill="none" stroke="black" d="M95.48,-72.41C104.57,-63.69 115.88,-52.85 125.93,-43.21"/>
<polygon fill="black" stroke="black" points="128.11,-45.96 132.91,-36.52 123.27,-40.91 128.11,-45.96"/>
</g>
<!-- :core:network&#45;&gt;:core:common -->
<g id="edge6" class="edge">
<title>:core:network&#45;&gt;:core:common</title>
<path fill="none" stroke="red" stroke-width="2" d="M118.43,-75.83C153.03,-64.52 203.14,-48.12 240.66,-35.85"/>
<polygon fill="red" stroke="red" stroke-width="2" points="240.09,-39.72 248.5,-33.29 237.91,-33.07 240.09,-39.72"/>
</g>
<!-- :core:database&#45;&gt;:core:model -->
<g id="edge8" class="edge">
<title>:core:database&#45;&gt;:core:model</title>
<path fill="none" stroke="black" d="M205.35,-72.41C196.6,-63.78 185.73,-53.06 176.02,-43.5"/>
<polygon fill="black" stroke="black" points="178.54,-41.06 168.96,-36.53 173.62,-46.05 178.54,-41.06"/>
</g>
<!-- :core:database&#45;&gt;:core:common -->
<g id="edge9" class="edge">
<title>:core:database&#45;&gt;:core:common</title>
<path fill="none" stroke="black" d="M238.77,-72.41C247.4,-63.78 258.12,-53.06 267.68,-43.5"/>
<polygon fill="black" stroke="black" points="270.04,-46.09 274.64,-36.54 265.09,-41.14 270.04,-46.09"/>
</g>
<!-- :core:datastore&#45;&gt;:core:model -->
<g id="edge10" class="edge">
<title>:core:datastore&#45;&gt;:core:model</title>
<path fill="none" stroke="black" d="M327.66,-75.67C291.46,-64.04 238.87,-47.16 200.53,-34.85"/>
<polygon fill="black" stroke="black" points="201.65,-31.53 191.06,-31.81 199.51,-38.2 201.65,-31.53"/>
</g>
<!-- :core:datastore&#45;&gt;:core:common -->
<g id="edge11" class="edge">
<title>:core:datastore&#45;&gt;:core:common</title>
<path fill="none" stroke="black" d="M350.93,-72.41C341.41,-63.76 329.58,-53 319.04,-43.42"/>
<polygon fill="black" stroke="black" points="321.43,-40.87 311.68,-36.73 316.73,-46.05 321.43,-40.87"/>
</g>
</g>
</svg>
