<?xml version="1.0" encoding="UTF-8" standalone="no"?>
<!DOCTYPE svg PUBLIC "-//W3C//DTD SVG 1.1//EN"
 "http://www.w3.org/Graphics/SVG/1.1/DTD/svg11.dtd">
<!-- Generated by graphviz version 11.0.0 (20240428.1522)
 -->
<!-- Title: G Pages: 1 -->
<svg width="268pt" height="116pt"
 viewBox="0.00 0.00 267.62 116.00" xmlns="http://www.w3.org/2000/svg" xmlns:xlink="http://www.w3.org/1999/xlink">
<g id="graph0" class="graph" transform="scale(1 1) rotate(0) translate(4 112)">
<title>G</title>
<polygon fill="white" stroke="none" points="-4,4 -4,-112 263.62,-112 263.62,4 -4,4"/>
<!-- :core:database -->
<g id="node1" class="node">
<title>:core:database</title>
<ellipse fill="none" stroke="black" cx="124.45" cy="-90" rx="63.63" ry="18"/>
<text text-anchor="middle" x="124.45" y="-84.95" font-family="Times,serif" font-size="14.00">:core:database</text>
</g>
<!-- :core:model -->
<g id="node2" class="node">
<title>:core:model</title>
<ellipse fill="none" stroke="black" cx="55.45" cy="-18" rx="55.45" ry="18"/>
<text text-anchor="middle" x="55.45" y="-12.95" font-family="Times,serif" font-size="14.00">:core:model</text>
</g>
<!-- :core:database&#45;&gt;:core:model -->
<g id="edge1" class="edge">
<title>:core:database&#45;&gt;:core:model</title>
<path fill="none" stroke="red" stroke-width="2" d="M108.09,-72.41C99.59,-63.78 89.02,-53.06 79.59,-43.5"/>
<polygon fill="red" stroke="red" stroke-width="2" points="83.32,-42.29 73.81,-37.63 78.33,-47.2 83.32,-42.29"/>
</g>
<!-- :core:common -->
<g id="node3" class="node">
<title>:core:common</title>
<ellipse fill="none" stroke="black" cx="194.45" cy="-18" rx="65.17" ry="18"/>
<text text-anchor="middle" x="194.45" y="-12.95" font-family="Times,serif" font-size="14.00">:core:common</text>
</g>
<!-- :core:database&#45;&gt;:core:common -->
<g id="edge2" class="edge">
<title>:core:database&#45;&gt;:core:common</title>
<path fill="none" stroke="black" d="M141.03,-72.41C149.67,-63.78 160.38,-53.06 169.95,-43.5"/>
<polygon fill="black" stroke="black" points="172.31,-46.09 176.91,-36.54 167.36,-41.14 172.31,-46.09"/>
</g>
</g>
</svg>
