<?xml version="1.0" encoding="UTF-8" standalone="no"?>
<!DOCTYPE svg PUBLIC "-//W3C//DTD SVG 1.1//EN"
 "http://www.w3.org/Graphics/SVG/1.1/DTD/svg11.dtd">
<!-- Generated by graphviz version 11.0.0 (20240428.1522)
 -->
<!-- Title: G Pages: 1 -->
<svg width="733pt" height="332pt"
 viewBox="0.00 0.00 733.07 332.00" xmlns="http://www.w3.org/2000/svg" xmlns:xlink="http://www.w3.org/1999/xlink">
<g id="graph0" class="graph" transform="scale(1 1) rotate(0) translate(4 328)">
<title>G</title>
<polygon fill="white" stroke="none" points="-4,4 -4,-328 729.07,-328 729.07,4 -4,4"/>
<!-- :feature:settings -->
<g id="node1" class="node">
<title>:feature:settings</title>
<ellipse fill="none" stroke="black" cx="270.06" cy="-306" rx="69.78" ry="18"/>
<text text-anchor="middle" x="270.06" y="-300.95" font-family="Times,serif" font-size="14.00">:feature:settings</text>
</g>
<!-- :core:ui -->
<g id="node2" class="node">
<title>:core:ui</title>
<ellipse fill="none" stroke="black" cx="212.06" cy="-234" rx="39.07" ry="18"/>
<text text-anchor="middle" x="212.06" y="-228.95" font-family="Times,serif" font-size="14.00">:core:ui</text>
</g>
<!-- :feature:settings&#45;&gt;:core:ui -->
<g id="edge1" class="edge">
<title>:feature:settings&#45;&gt;:core:ui</title>
<path fill="none" stroke="black" d="M256.02,-288.05C249.08,-279.68 240.57,-269.4 232.89,-260.13"/>
<polygon fill="black" stroke="black" points="235.61,-257.94 226.54,-252.47 230.22,-262.41 235.61,-257.94"/>
</g>
<!-- :core:designsystem -->
<g id="node3" class="node">
<title>:core:designsystem</title>
<ellipse fill="none" stroke="black" cx="82.06" cy="-162" rx="82.06" ry="18"/>
<text text-anchor="middle" x="82.06" y="-156.95" font-family="Times,serif" font-size="14.00">:core:designsystem</text>
</g>
<!-- :feature:settings&#45;&gt;:core:designsystem -->
<g id="edge2" class="edge">
<title>:feature:settings&#45;&gt;:core:designsystem</title>
<path fill="none" stroke="black" d="M232.84,-290.37C211.61,-281.08 185.11,-267.83 164.06,-252 139.96,-233.87 117.11,-208.1 101.69,-188.95"/>
<polygon fill="black" stroke="black" points="104.62,-187.01 95.67,-181.33 99.12,-191.35 104.62,-187.01"/>
</g>
<!-- :core:domain -->
<g id="node4" class="node">
<title>:core:domain</title>
<ellipse fill="none" stroke="black" cx="354.06" cy="-234" rx="60.05" ry="18"/>
<text text-anchor="middle" x="354.06" y="-228.95" font-family="Times,serif" font-size="14.00">:core:domain</text>
</g>
<!-- :feature:settings&#45;&gt;:core:domain -->
<g id="edge3" class="edge">
<title>:feature:settings&#45;&gt;:core:domain</title>
<path fill="none" stroke="red" stroke-width="2" d="M289.97,-288.41C300.64,-279.52 313.97,-268.41 325.7,-258.63"/>
<polygon fill="red" stroke="red" stroke-width="2" points="326.53,-262.5 331.97,-253.41 322.05,-257.12 326.53,-262.5"/>
</g>
<!-- :core:model -->
<g id="node5" class="node">
<title>:core:model</title>
<ellipse fill="none" stroke="black" cx="658.06" cy="-18" rx="55.45" ry="18"/>
<text text-anchor="middle" x="658.06" y="-12.95" font-family="Times,serif" font-size="14.00">:core:model</text>
</g>
<!-- :feature:settings&#45;&gt;:core:model -->
<g id="edge4" class="edge">
<title>:feature:settings&#45;&gt;:core:model</title>
<path fill="none" stroke="black" d="M329.57,-296.27C409.61,-282.3 553.81,-249.15 657.06,-180 702.86,-149.32 740.72,-122.25 718.06,-72 712.58,-59.85 702.79,-49.36 692.68,-41"/>
<polygon fill="black" stroke="black" points="695.08,-38.43 685.02,-35.13 690.83,-43.99 695.08,-38.43"/>
</g>
<!-- :core:ui&#45;&gt;:core:designsystem -->
<g id="edge5" class="edge">
<title>:core:ui&#45;&gt;:core:designsystem</title>
<path fill="none" stroke="black" d="M187.3,-219.67C168.82,-209.71 143.17,-195.91 121.82,-184.41"/>
<polygon fill="black" stroke="black" points="123.54,-181.36 113.07,-179.7 120.22,-187.52 123.54,-181.36"/>
</g>
<!-- :core:domain&#45;&gt;:core:model -->
<g id="edge8" class="edge">
<title>:core:domain&#45;&gt;:core:model</title>
<path fill="none" stroke="black" d="M413.87,-231.38C495,-225.57 637.24,-201.71 702.06,-108 716.2,-87.56 700.46,-61.92 684.01,-43.41"/>
<polygon fill="black" stroke="black" points="686.71,-41.17 677.29,-36.31 681.62,-45.98 686.71,-41.17"/>
</g>
<!-- :core:common -->
<g id="node6" class="node">
<title>:core:common</title>
<ellipse fill="none" stroke="black" cx="323.06" cy="-18" rx="65.17" ry="18"/>
<text text-anchor="middle" x="323.06" y="-12.95" font-family="Times,serif" font-size="14.00">:core:common</text>
</g>
<!-- :core:domain&#45;&gt;:core:common -->
<g id="edge6" class="edge">
<title>:core:domain&#45;&gt;:core:common</title>
<path fill="none" stroke="black" d="M331.48,-217.09C303.6,-195.9 257.6,-155.53 239.06,-108 233.25,-93.09 231.33,-86.01 239.06,-72 247.11,-57.4 261.06,-46.27 275.31,-38.07"/>
<polygon fill="black" stroke="black" points="276.62,-41.34 283.81,-33.56 273.34,-35.15 276.62,-41.34"/>
</g>
<!-- :core:data -->
<g id="node7" class="node">
<title>:core:data</title>
<ellipse fill="none" stroke="black" cx="455.06" cy="-162" rx="47.26" ry="18"/>
<text text-anchor="middle" x="455.06" y="-156.95" font-family="Times,serif" font-size="14.00">:core:data</text>
</g>
<!-- :core:domain&#45;&gt;:core:data -->
<g id="edge7" class="edge">
<title>:core:domain&#45;&gt;:core:data</title>
<path fill="none" stroke="red" stroke-width="2" d="M377.23,-216.94C390.99,-207.4 408.62,-195.18 423.62,-184.79"/>
<polygon fill="red" stroke="red" stroke-width="2" points="424.32,-188.56 430.55,-179.99 420.33,-182.81 424.32,-188.56"/>
</g>
<!-- :core:data&#45;&gt;:core:model -->
<g id="edge9" class="edge">
<title>:core:data&#45;&gt;:core:model</title>
<path fill="none" stroke="black" d="M501.06,-157.05C561.46,-150.81 662.51,-136.34 685.06,-108 699.38,-90.01 689.41,-64.49 677.75,-45.39"/>
<polygon fill="black" stroke="black" points="680.68,-43.48 672.26,-37.06 674.84,-47.34 680.68,-43.48"/>
</g>
<!-- :core:data&#45;&gt;:core:common -->
<g id="edge10" class="edge">
<title>:core:data&#45;&gt;:core:common</title>
<path fill="none" stroke="black" d="M410.31,-155.86C355.83,-148.57 268.63,-133.24 249.06,-108 239.26,-95.36 241.75,-86.23 249.06,-72 255.97,-58.56 268.04,-47.76 280.45,-39.51"/>
<polygon fill="black" stroke="black" points="281.95,-42.7 288.64,-34.49 278.29,-36.74 281.95,-42.7"/>
</g>
<!-- :core:network -->
<g id="node8" class="node">
<title>:core:network</title>
<ellipse fill="none" stroke="black" cx="468.06" cy="-90" rx="62.1" ry="18"/>
<text text-anchor="middle" x="468.06" y="-84.95" font-family="Times,serif" font-size="14.00">:core:network</text>
</g>
<!-- :core:data&#45;&gt;:core:network -->
<g id="edge11" class="edge">
<title>:core:data&#45;&gt;:core:network</title>
<path fill="none" stroke="red" stroke-width="2" d="M458.27,-143.7C459.64,-136.32 461.28,-127.52 462.81,-119.25"/>
<polygon fill="red" stroke="red" stroke-width="2" points="465.95,-121.55 464.33,-111.08 459.06,-120.27 465.95,-121.55"/>
</g>
<!-- :core:database -->
<g id="node9" class="node">
<title>:core:database</title>
<ellipse fill="none" stroke="black" cx="612.06" cy="-90" rx="63.63" ry="18"/>
<text text-anchor="middle" x="612.06" y="-84.95" font-family="Times,serif" font-size="14.00">:core:database</text>
</g>
<!-- :core:data&#45;&gt;:core:database -->
<g id="edge12" class="edge">
<title>:core:data&#45;&gt;:core:database</title>
<path fill="none" stroke="black" d="M484.96,-147.67C508.68,-137.09 542.16,-122.17 568.8,-110.29"/>
<polygon fill="black" stroke="black" points="569.92,-113.62 577.63,-106.35 567.07,-107.23 569.92,-113.62"/>
</g>
<!-- :core:datastore -->
<g id="node10" class="node">
<title>:core:datastore</title>
<ellipse fill="none" stroke="black" cx="323.06" cy="-90" rx="65.17" ry="18"/>
<text text-anchor="middle" x="323.06" y="-84.95" font-family="Times,serif" font-size="14.00">:core:datastore</text>
</g>
<!-- :core:data&#45;&gt;:core:datastore -->
<g id="edge13" class="edge">
<title>:core:data&#45;&gt;:core:datastore</title>
<path fill="none" stroke="black" d="M428.35,-146.83C409.31,-136.74 383.43,-123.01 362.08,-111.69"/>
<polygon fill="black" stroke="black" points="363.83,-108.66 353.36,-107.07 360.55,-114.85 363.83,-108.66"/>
</g>
<!-- :core:network&#45;&gt;:core:model -->
<g id="edge15" class="edge">
<title>:core:network&#45;&gt;:core:model</title>
<path fill="none" stroke="black" d="M505.14,-75.34C535.61,-64.11 578.93,-48.15 611.69,-36.09"/>
<polygon fill="black" stroke="black" points="612.76,-39.42 620.94,-32.68 610.34,-32.85 612.76,-39.42"/>
</g>
<!-- :core:network&#45;&gt;:core:common -->
<g id="edge14" class="edge">
<title>:core:network&#45;&gt;:core:common</title>
<path fill="none" stroke="red" stroke-width="2" d="M436.95,-73.98C415.81,-63.78 387.6,-50.16 364.55,-39.03"/>
<polygon fill="red" stroke="red" stroke-width="2" points="367.62,-36.62 357.09,-35.43 364.57,-42.93 367.62,-36.62"/>
</g>
<!-- :core:database&#45;&gt;:core:model -->
<g id="edge16" class="edge">
<title>:core:database&#45;&gt;:core:model</title>
<path fill="none" stroke="black" d="M623.2,-72.05C628.45,-64.06 634.84,-54.33 640.71,-45.4"/>
<polygon fill="black" stroke="black" points="643.63,-47.33 646.2,-37.05 637.78,-43.49 643.63,-47.33"/>
</g>
<!-- :core:database&#45;&gt;:core:common -->
<g id="edge17" class="edge">
<title>:core:database&#45;&gt;:core:common</title>
<path fill="none" stroke="black" d="M564.98,-77.6C514.96,-65.48 435.78,-46.3 381.73,-33.21"/>
<polygon fill="black" stroke="black" points="382.61,-29.82 372.07,-30.87 380.96,-36.63 382.61,-29.82"/>
</g>
<!-- :core:datastore&#45;&gt;:core:model -->
<g id="edge18" class="edge">
<title>:core:datastore&#45;&gt;:core:model</title>
<path fill="none" stroke="black" d="M371.58,-77.67C380.07,-75.74 388.81,-73.78 397.06,-72 466.74,-56.92 547.16,-40.78 600.11,-30.33"/>
<polygon fill="black" stroke="black" points="600.69,-33.78 609.82,-28.41 599.34,-26.91 600.69,-33.78"/>
</g>
<!-- :core:datastore&#45;&gt;:core:common -->
<g id="edge19" class="edge">
<title>:core:datastore&#45;&gt;:core:common</title>
<path fill="none" stroke="black" d="M323.06,-71.7C323.06,-64.41 323.06,-55.73 323.06,-47.54"/>
<polygon fill="black" stroke="black" points="326.56,-47.62 323.06,-37.62 319.56,-47.62 326.56,-47.62"/>
</g>
</g>
</svg>
