<?xml version="1.0" encoding="UTF-8" standalone="no"?>
<!DOCTYPE svg PUBLIC "-//W3C//DTD SVG 1.1//EN"
 "http://www.w3.org/Graphics/SVG/1.1/DTD/svg11.dtd">
<!-- Generated by graphviz version 11.0.0 (20240428.1522)
 -->
<!-- Title: G Pages: 1 -->
<svg width="483pt" height="260pt"
 viewBox="0.00 0.00 483.09 260.00" xmlns="http://www.w3.org/2000/svg" xmlns:xlink="http://www.w3.org/1999/xlink">
<g id="graph0" class="graph" transform="scale(1 1) rotate(0) translate(4 256)">
<title>G</title>
<polygon fill="white" stroke="none" points="-4,4 -4,-256 479.09,-256 479.09,4 -4,4"/>
<!-- :core:domain -->
<g id="node1" class="node">
<title>:core:domain</title>
<ellipse fill="none" stroke="black" cx="230.96" cy="-234" rx="60.05" ry="18"/>
<text text-anchor="middle" x="230.96" y="-228.95" font-family="Times,serif" font-size="14.00">:core:domain</text>
</g>
<!-- :core:common -->
<g id="node2" class="node">
<title>:core:common</title>
<ellipse fill="none" stroke="black" cx="86.96" cy="-18" rx="65.17" ry="18"/>
<text text-anchor="middle" x="86.96" y="-12.95" font-family="Times,serif" font-size="14.00">:core:common</text>
</g>
<!-- :core:domain&#45;&gt;:core:common -->
<g id="edge1" class="edge">
<title>:core:domain&#45;&gt;:core:common</title>
<path fill="none" stroke="black" d="M184.41,-222.19C130.55,-206.91 44.37,-173.28 5.96,-108 -2.15,-94.21 -1.65,-86.07 5.96,-72 13.61,-57.84 26.88,-46.86 40.48,-38.66"/>
<polygon fill="black" stroke="black" points="42,-41.82 49.04,-33.91 38.6,-35.7 42,-41.82"/>
</g>
<!-- :core:data -->
<g id="node3" class="node">
<title>:core:data</title>
<ellipse fill="none" stroke="black" cx="230.96" cy="-162" rx="47.26" ry="18"/>
<text text-anchor="middle" x="230.96" y="-156.95" font-family="Times,serif" font-size="14.00">:core:data</text>
</g>
<!-- :core:domain&#45;&gt;:core:data -->
<g id="edge2" class="edge">
<title>:core:domain&#45;&gt;:core:data</title>
<path fill="none" stroke="red" stroke-width="2" d="M230.96,-215.7C230.96,-208.41 230.96,-199.73 230.96,-191.54"/>
<polygon fill="red" stroke="red" stroke-width="2" points="234.46,-193.13 230.96,-183.13 227.46,-193.13 234.46,-193.13"/>
</g>
<!-- :core:model -->
<g id="node4" class="node">
<title>:core:model</title>
<ellipse fill="none" stroke="black" cx="377.96" cy="-18" rx="55.45" ry="18"/>
<text text-anchor="middle" x="377.96" y="-12.95" font-family="Times,serif" font-size="14.00">:core:model</text>
</g>
<!-- :core:domain&#45;&gt;:core:model -->
<g id="edge3" class="edge">
<title>:core:domain&#45;&gt;:core:model</title>
<path fill="none" stroke="black" d="M279.6,-223.15C336.44,-208.75 427.92,-175.91 468.96,-108 477.24,-94.31 476.93,-85.87 468.96,-72 459.6,-55.72 443.11,-43.98 426.71,-35.75"/>
<polygon fill="black" stroke="black" points="428.5,-32.72 417.95,-31.7 425.57,-39.07 428.5,-32.72"/>
</g>
<!-- :core:data&#45;&gt;:core:common -->
<g id="edge5" class="edge">
<title>:core:data&#45;&gt;:core:common</title>
<path fill="none" stroke="black" d="M185.75,-156.33C129.03,-149.44 36.65,-134.4 15.96,-108 6.09,-95.4 8.79,-86.3 15.96,-72 22.49,-58.98 33.9,-48.34 45.69,-40.1"/>
<polygon fill="black" stroke="black" points="47.36,-43.19 53.87,-34.83 43.57,-37.31 47.36,-43.19"/>
</g>
<!-- :core:data&#45;&gt;:core:model -->
<g id="edge4" class="edge">
<title>:core:data&#45;&gt;:core:model</title>
<path fill="none" stroke="black" d="M276.41,-156.64C334.61,-150.01 430.52,-135.19 451.96,-108 461.87,-95.44 459.27,-86.23 451.96,-72 444.88,-58.22 432.37,-47.23 419.64,-38.9"/>
<polygon fill="black" stroke="black" points="421.6,-36 411.23,-33.83 417.99,-41.99 421.6,-36"/>
</g>
<!-- :core:network -->
<g id="node5" class="node">
<title>:core:network</title>
<ellipse fill="none" stroke="black" cx="86.96" cy="-90" rx="62.1" ry="18"/>
<text text-anchor="middle" x="86.96" y="-84.95" font-family="Times,serif" font-size="14.00">:core:network</text>
</g>
<!-- :core:data&#45;&gt;:core:network -->
<g id="edge6" class="edge">
<title>:core:data&#45;&gt;:core:network</title>
<path fill="none" stroke="red" stroke-width="2" d="M202.51,-147.17C181.23,-136.83 151.83,-122.53 128.01,-110.95"/>
<polygon fill="red" stroke="red" stroke-width="2" points="131.09,-108.56 120.57,-107.34 128.03,-114.86 131.09,-108.56"/>
</g>
<!-- :core:database -->
<g id="node6" class="node">
<title>:core:database</title>
<ellipse fill="none" stroke="black" cx="230.96" cy="-90" rx="63.63" ry="18"/>
<text text-anchor="middle" x="230.96" y="-84.95" font-family="Times,serif" font-size="14.00">:core:database</text>
</g>
<!-- :core:data&#45;&gt;:core:database -->
<g id="edge7" class="edge">
<title>:core:data&#45;&gt;:core:database</title>
<path fill="none" stroke="black" d="M230.96,-143.7C230.96,-136.41 230.96,-127.73 230.96,-119.54"/>
<polygon fill="black" stroke="black" points="234.46,-119.62 230.96,-109.62 227.46,-119.62 234.46,-119.62"/>
</g>
<!-- :core:datastore -->
<g id="node7" class="node">
<title>:core:datastore</title>
<ellipse fill="none" stroke="black" cx="377.96" cy="-90" rx="65.17" ry="18"/>
<text text-anchor="middle" x="377.96" y="-84.95" font-family="Times,serif" font-size="14.00">:core:datastore</text>
</g>
<!-- :core:data&#45;&gt;:core:datastore -->
<g id="edge8" class="edge">
<title>:core:data&#45;&gt;:core:datastore</title>
<path fill="none" stroke="black" d="M259.65,-147.34C281.44,-136.96 311.72,-122.54 336.19,-110.89"/>
<polygon fill="black" stroke="black" points="337.39,-114.19 344.92,-106.74 334.38,-107.87 337.39,-114.19"/>
</g>
<!-- :core:network&#45;&gt;:core:common -->
<g id="edge9" class="edge">
<title>:core:network&#45;&gt;:core:common</title>
<path fill="none" stroke="red" stroke-width="2" d="M86.96,-71.7C86.96,-64.41 86.96,-55.73 86.96,-47.54"/>
<polygon fill="red" stroke="red" stroke-width="2" points="90.46,-49.13 86.96,-39.13 83.46,-49.13 90.46,-49.13"/>
</g>
<!-- :core:network&#45;&gt;:core:model -->
<g id="edge10" class="edge">
<title>:core:network&#45;&gt;:core:model</title>
<path fill="none" stroke="black" d="M133.71,-77.75C185.57,-65.28 269.11,-45.18 323.78,-32.03"/>
<polygon fill="black" stroke="black" points="324.27,-35.51 333.18,-29.77 322.63,-28.71 324.27,-35.51"/>
</g>
<!-- :core:database&#45;&gt;:core:common -->
<g id="edge12" class="edge">
<title>:core:database&#45;&gt;:core:common</title>
<path fill="none" stroke="black" d="M200.07,-73.98C179.14,-63.81 151.25,-50.25 128.4,-39.14"/>
<polygon fill="black" stroke="black" points="130.18,-36.12 119.66,-34.9 127.12,-42.41 130.18,-36.12"/>
</g>
<!-- :core:database&#45;&gt;:core:model -->
<g id="edge11" class="edge">
<title>:core:database&#45;&gt;:core:model</title>
<path fill="none" stroke="black" d="M262.49,-73.98C284.3,-63.6 313.5,-49.69 337.09,-38.46"/>
<polygon fill="black" stroke="black" points="338.59,-41.62 346.12,-34.16 335.58,-35.3 338.59,-41.62"/>
</g>
<!-- :core:datastore&#45;&gt;:core:common -->
<g id="edge14" class="edge">
<title>:core:datastore&#45;&gt;:core:common</title>
<path fill="none" stroke="black" d="M329.91,-77.44C279.57,-65.33 200.43,-46.3 146.25,-33.26"/>
<polygon fill="black" stroke="black" points="147.1,-29.87 136.56,-30.93 145.46,-36.67 147.1,-29.87"/>
</g>
<!-- :core:datastore&#45;&gt;:core:model -->
<g id="edge13" class="edge">
<title>:core:datastore&#45;&gt;:core:model</title>
<path fill="none" stroke="black" d="M377.96,-71.7C377.96,-64.41 377.96,-55.73 377.96,-47.54"/>
<polygon fill="black" stroke="black" points="381.46,-47.62 377.96,-37.62 374.46,-47.62 381.46,-47.62"/>
</g>
</g>
</svg>
