<?xml version="1.0" encoding="UTF-8" standalone="no"?>
<!DOCTYPE svg PUBLIC "-//W3C//DTD SVG 1.1//EN"
 "http://www.w3.org/Graphics/SVG/1.1/DTD/svg11.dtd">
<!-- Generated by graphviz version 11.0.0 (20240428.1522)
 -->
<!-- Title: G Pages: 1 -->
<svg width="974pt" height="404pt"
 viewBox="0.00 0.00 974.00 404.00" xmlns="http://www.w3.org/2000/svg" xmlns:xlink="http://www.w3.org/1999/xlink">
<g id="graph0" class="graph" transform="scale(1 1) rotate(0) translate(4 400)">
<title>G</title>
<polygon fill="white" stroke="none" points="-4,4 -4,-400 970,-400 970,4 -4,4"/>
<!-- :app -->
<g id="node1" class="node">
<title>:app</title>
<ellipse fill="none" stroke="black" cx="732" cy="-378" rx="27" ry="18"/>
<text text-anchor="middle" x="732" y="-372.95" font-family="Times,serif" font-size="14.00">:app</text>
</g>
<!-- :core:ui -->
<g id="node2" class="node">
<title>:core:ui</title>
<ellipse fill="none" stroke="black" cx="769" cy="-234" rx="39.07" ry="18"/>
<text text-anchor="middle" x="769" y="-228.95" font-family="Times,serif" font-size="14.00">:core:ui</text>
</g>
<!-- :app&#45;&gt;:core:ui -->
<g id="edge1" class="edge">
<title>:app&#45;&gt;:core:ui</title>
<path fill="none" stroke="black" d="M735.05,-359.79C738.4,-341.76 744.2,-312.68 751,-288 753.28,-279.72 756.13,-270.84 758.89,-262.77"/>
<polygon fill="black" stroke="black" points="762.15,-264.05 762.15,-253.46 755.54,-261.74 762.15,-264.05"/>
</g>
<!-- :core:designsystem -->
<g id="node3" class="node">
<title>:core:designsystem</title>
<ellipse fill="none" stroke="black" cx="774" cy="-162" rx="82.06" ry="18"/>
<text text-anchor="middle" x="774" y="-156.95" font-family="Times,serif" font-size="14.00">:core:designsystem</text>
</g>
<!-- :app&#45;&gt;:core:designsystem -->
<g id="edge2" class="edge">
<title>:app&#45;&gt;:core:designsystem</title>
<path fill="none" stroke="black" d="M758.31,-373.01C803.05,-365.62 890.9,-348.32 909,-324 947.68,-272.05 867.76,-214.71 815.15,-184.45"/>
<polygon fill="black" stroke="black" points="817.11,-181.54 806.68,-179.69 813.68,-187.64 817.11,-181.54"/>
</g>
<!-- :core:domain -->
<g id="node4" class="node">
<title>:core:domain</title>
<ellipse fill="none" stroke="black" cx="566" cy="-234" rx="60.05" ry="18"/>
<text text-anchor="middle" x="566" y="-228.95" font-family="Times,serif" font-size="14.00">:core:domain</text>
</g>
<!-- :app&#45;&gt;:core:domain -->
<g id="edge3" class="edge">
<title>:app&#45;&gt;:core:domain</title>
<path fill="none" stroke="black" d="M704.69,-377.03C667.21,-375.41 600.85,-366.32 569,-324 556.21,-307 556.3,-282.55 559.13,-263.58"/>
<polygon fill="black" stroke="black" points="562.56,-264.27 560.93,-253.8 555.67,-263 562.56,-264.27"/>
</g>
<!-- :core:common -->
<g id="node5" class="node">
<title>:core:common</title>
<ellipse fill="none" stroke="black" cx="114" cy="-18" rx="65.17" ry="18"/>
<text text-anchor="middle" x="114" y="-12.95" font-family="Times,serif" font-size="14.00">:core:common</text>
</g>
<!-- :app&#45;&gt;:core:common -->
<g id="edge4" class="edge">
<title>:app&#45;&gt;:core:common</title>
<path fill="none" stroke="black" d="M705.08,-374.7C573.02,-363.05 0,-308.3 0,-235 0,-235 0,-235 0,-161 0,-109.71 45.79,-66.39 79.33,-41.55"/>
<polygon fill="black" stroke="black" points="81.09,-44.59 87.19,-35.92 77.02,-38.9 81.09,-44.59"/>
</g>
<!-- :core:model -->
<g id="node6" class="node">
<title>:core:model</title>
<ellipse fill="none" stroke="black" cx="607" cy="-18" rx="55.45" ry="18"/>
<text text-anchor="middle" x="607" y="-12.95" font-family="Times,serif" font-size="14.00">:core:model</text>
</g>
<!-- :app&#45;&gt;:core:model -->
<g id="edge5" class="edge">
<title>:app&#45;&gt;:core:model</title>
<path fill="none" stroke="black" d="M759.19,-376.84C800.51,-375.17 879.45,-366.21 928,-324 960.46,-295.78 966,-278.01 966,-235 966,-235 966,-235 966,-161 966,-97.2 767.49,-49.77 665.7,-29.64"/>
<polygon fill="black" stroke="black" points="666.64,-26.25 656.16,-27.78 665.3,-33.13 666.64,-26.25"/>
</g>
<!-- :feature:home -->
<g id="node7" class="node">
<title>:feature:home</title>
<ellipse fill="none" stroke="black" cx="641" cy="-306" rx="62.61" ry="18"/>
<text text-anchor="middle" x="641" y="-300.95" font-family="Times,serif" font-size="14.00">:feature:home</text>
</g>
<!-- :app&#45;&gt;:feature:home -->
<g id="edge6" class="edge">
<title>:app&#45;&gt;:feature:home</title>
<path fill="none" stroke="red" stroke-width="2" d="M714.88,-363.83C702.64,-354.41 685.82,-341.48 671.32,-330.33"/>
<polygon fill="red" stroke="red" stroke-width="2" points="674.66,-328.48 664.6,-325.16 670.4,-334.03 674.66,-328.48"/>
</g>
<!-- :feature:settings -->
<g id="node8" class="node">
<title>:feature:settings</title>
<ellipse fill="none" stroke="black" cx="830" cy="-306" rx="69.78" ry="18"/>
<text text-anchor="middle" x="830" y="-300.95" font-family="Times,serif" font-size="14.00">:feature:settings</text>
</g>
<!-- :app&#45;&gt;:feature:settings -->
<g id="edge7" class="edge">
<title>:app&#45;&gt;:feature:settings</title>
<path fill="none" stroke="black" d="M749.97,-364.16C763.37,-354.59 782.02,-341.27 797.95,-329.89"/>
<polygon fill="black" stroke="black" points="799.62,-333 805.72,-324.34 795.55,-327.31 799.62,-333"/>
</g>
<!-- :core:ui&#45;&gt;:core:designsystem -->
<g id="edge8" class="edge">
<title>:core:ui&#45;&gt;:core:designsystem</title>
<path fill="none" stroke="black" d="M770.24,-215.7C770.76,-208.41 771.38,-199.73 771.96,-191.54"/>
<polygon fill="black" stroke="black" points="775.45,-191.84 772.67,-181.61 768.47,-191.34 775.45,-191.84"/>
</g>
<!-- :core:domain&#45;&gt;:core:common -->
<g id="edge9" class="edge">
<title>:core:domain&#45;&gt;:core:common</title>
<path fill="none" stroke="black" d="M511.27,-226.2C401.43,-211.3 160.47,-171.92 112,-108 99.08,-90.97 100.71,-66.37 104.93,-47.34"/>
<polygon fill="black" stroke="black" points="108.28,-48.36 107.41,-37.8 101.51,-46.6 108.28,-48.36"/>
</g>
<!-- :core:domain&#45;&gt;:core:model -->
<g id="edge11" class="edge">
<title>:core:domain&#45;&gt;:core:model</title>
<path fill="none" stroke="black" d="M570.31,-215.69C576.2,-191.65 586.85,-146.71 594,-108 597.71,-87.91 601.02,-65.12 603.38,-47.62"/>
<polygon fill="black" stroke="black" points="606.81,-48.33 604.65,-37.96 599.87,-47.42 606.81,-48.33"/>
</g>
<!-- :core:data -->
<g id="node9" class="node">
<title>:core:data</title>
<ellipse fill="none" stroke="black" cx="425" cy="-162" rx="47.26" ry="18"/>
<text text-anchor="middle" x="425" y="-156.95" font-family="Times,serif" font-size="14.00">:core:data</text>
</g>
<!-- :core:domain&#45;&gt;:core:data -->
<g id="edge10" class="edge">
<title>:core:domain&#45;&gt;:core:data</title>
<path fill="none" stroke="red" stroke-width="2" d="M535.75,-217.98C514.42,-207.39 485.69,-193.13 462.84,-181.79"/>
<polygon fill="red" stroke="red" stroke-width="2" points="466.03,-179.46 455.52,-178.15 462.92,-185.73 466.03,-179.46"/>
</g>
<!-- :feature:home&#45;&gt;:core:ui -->
<g id="edge23" class="edge">
<title>:feature:home&#45;&gt;:core:ui</title>
<path fill="none" stroke="black" d="M669.09,-289.64C688.35,-279.1 714.04,-265.06 734.54,-253.85"/>
<polygon fill="black" stroke="black" points="736.01,-257.03 743.1,-249.16 732.65,-250.89 736.01,-257.03"/>
</g>
<!-- :feature:home&#45;&gt;:core:designsystem -->
<g id="edge24" class="edge">
<title>:feature:home&#45;&gt;:core:designsystem</title>
<path fill="none" stroke="black" d="M655.78,-288.03C671.64,-269.94 697.7,-240.57 721,-216 729.82,-206.7 739.7,-196.71 748.52,-187.93"/>
<polygon fill="black" stroke="black" points="750.86,-190.54 755.5,-181.02 745.93,-185.57 750.86,-190.54"/>
</g>
<!-- :feature:home&#45;&gt;:core:domain -->
<g id="edge25" class="edge">
<title>:feature:home&#45;&gt;:core:domain</title>
<path fill="none" stroke="red" stroke-width="2" d="M623.23,-288.41C613.89,-279.69 602.26,-268.85 591.94,-259.21"/>
<polygon fill="red" stroke="red" stroke-width="2" points="595.56,-257.8 585.86,-253.54 590.78,-262.92 595.56,-257.8"/>
</g>
<!-- :feature:home&#45;&gt;:core:common -->
<g id="edge26" class="edge">
<title>:feature:home&#45;&gt;:core:common</title>
<path fill="none" stroke="black" d="M580.63,-300.85C484.8,-291.86 294.94,-264.05 160,-180 124.16,-157.67 112.7,-147.59 98,-108 90.66,-88.23 95.43,-64.7 101.62,-46.8"/>
<polygon fill="black" stroke="black" points="104.83,-48.21 105.13,-37.62 98.29,-45.71 104.83,-48.21"/>
</g>
<!-- :feature:home&#45;&gt;:core:model -->
<g id="edge27" class="edge">
<title>:feature:home&#45;&gt;:core:model</title>
<path fill="none" stroke="black" d="M640.21,-287.57C639.3,-269.61 637.59,-240.8 635,-216 628.71,-155.86 617.93,-85.85 611.74,-47.59"/>
<polygon fill="black" stroke="black" points="615.21,-47.14 610.15,-37.83 608.3,-48.27 615.21,-47.14"/>
</g>
<!-- :feature:settings&#45;&gt;:core:ui -->
<g id="edge28" class="edge">
<title>:feature:settings&#45;&gt;:core:ui</title>
<path fill="none" stroke="black" d="M815.23,-288.05C807.75,-279.47 798.53,-268.89 790.3,-259.44"/>
<polygon fill="black" stroke="black" points="793,-257.21 783.79,-251.97 787.72,-261.81 793,-257.21"/>
</g>
<!-- :feature:settings&#45;&gt;:core:designsystem -->
<g id="edge29" class="edge">
<title>:feature:settings&#45;&gt;:core:designsystem</title>
<path fill="none" stroke="black" d="M830.15,-287.53C829.7,-269.02 827.22,-239.31 817,-216 812.71,-206.22 806.12,-196.76 799.37,-188.61"/>
<polygon fill="black" stroke="black" points="802.03,-186.34 792.8,-181.15 796.78,-190.97 802.03,-186.34"/>
</g>
<!-- :feature:settings&#45;&gt;:core:domain -->
<g id="edge30" class="edge">
<title>:feature:settings&#45;&gt;:core:domain</title>
<path fill="none" stroke="black" d="M782.5,-292.4C737.14,-280.38 668.83,-262.27 621.11,-249.61"/>
<polygon fill="black" stroke="black" points="622.08,-246.25 611.51,-247.07 620.28,-253.01 622.08,-246.25"/>
</g>
<!-- :feature:settings&#45;&gt;:core:model -->
<g id="edge31" class="edge">
<title>:feature:settings&#45;&gt;:core:model</title>
<path fill="none" stroke="black" d="M841.23,-288.09C860.25,-257.13 894.01,-190.29 865,-144 821.89,-75.21 728.99,-43.34 667.24,-29.26"/>
<polygon fill="black" stroke="black" points="668.09,-25.86 657.57,-27.16 666.6,-32.7 668.09,-25.86"/>
</g>
<!-- :core:data&#45;&gt;:core:common -->
<g id="edge13" class="edge">
<title>:core:data&#45;&gt;:core:common</title>
<path fill="none" stroke="black" d="M378.27,-158.71C304.84,-154.12 167.26,-141.22 133,-108 117.13,-92.61 112.93,-67.44 112.39,-47.8"/>
<polygon fill="black" stroke="black" points="115.89,-47.94 112.44,-37.92 108.89,-47.9 115.89,-47.94"/>
</g>
<!-- :core:data&#45;&gt;:core:model -->
<g id="edge12" class="edge">
<title>:core:data&#45;&gt;:core:model</title>
<path fill="none" stroke="black" d="M468.26,-154.48C499.69,-147.71 541.39,-134.24 569,-108 586.02,-91.82 595.79,-66.78 601.14,-47.37"/>
<polygon fill="black" stroke="black" points="604.48,-48.45 603.5,-37.9 597.69,-46.75 604.48,-48.45"/>
</g>
<!-- :core:network -->
<g id="node10" class="node">
<title>:core:network</title>
<ellipse fill="none" stroke="black" cx="498" cy="-90" rx="62.1" ry="18"/>
<text text-anchor="middle" x="498" y="-84.95" font-family="Times,serif" font-size="14.00">:core:network</text>
</g>
<!-- :core:data&#45;&gt;:core:network -->
<g id="edge14" class="edge">
<title>:core:data&#45;&gt;:core:network</title>
<path fill="none" stroke="red" stroke-width="2" d="M441.93,-144.76C451.01,-136.06 462.39,-125.15 472.52,-115.43"/>
<polygon fill="red" stroke="red" stroke-width="2" points="473.67,-119.18 478.47,-109.73 468.83,-114.12 473.67,-119.18"/>
</g>
<!-- :core:database -->
<g id="node11" class="node">
<title>:core:database</title>
<ellipse fill="none" stroke="black" cx="206" cy="-90" rx="63.63" ry="18"/>
<text text-anchor="middle" x="206" y="-84.95" font-family="Times,serif" font-size="14.00">:core:database</text>
</g>
<!-- :core:data&#45;&gt;:core:database -->
<g id="edge15" class="edge">
<title>:core:data&#45;&gt;:core:database</title>
<path fill="none" stroke="black" d="M389.81,-149.75C354.15,-138.35 298.57,-120.59 257.86,-107.58"/>
<polygon fill="black" stroke="black" points="259.1,-104.3 248.51,-104.59 256.97,-110.97 259.1,-104.3"/>
</g>
<!-- :core:datastore -->
<g id="node12" class="node">
<title>:core:datastore</title>
<ellipse fill="none" stroke="black" cx="353" cy="-90" rx="65.17" ry="18"/>
<text text-anchor="middle" x="353" y="-84.95" font-family="Times,serif" font-size="14.00">:core:datastore</text>
</g>
<!-- :core:data&#45;&gt;:core:datastore -->
<g id="edge16" class="edge">
<title>:core:data&#45;&gt;:core:datastore</title>
<path fill="none" stroke="black" d="M408.3,-144.76C399.34,-136.06 388.12,-125.15 378.13,-115.43"/>
<polygon fill="black" stroke="black" points="380.8,-113.15 371.19,-108.69 375.92,-118.17 380.8,-113.15"/>
</g>
<!-- :core:network&#45;&gt;:core:common -->
<g id="edge17" class="edge">
<title>:core:network&#45;&gt;:core:common</title>
<path fill="none" stroke="red" stroke-width="2" d="M452.27,-77.57C443.89,-75.61 435.2,-73.67 427,-72 342.82,-54.82 245.1,-38.91 181.54,-29.09"/>
<polygon fill="red" stroke="red" stroke-width="2" points="183.88,-25.91 173.46,-27.85 182.82,-32.83 183.88,-25.91"/>
</g>
<!-- :core:network&#45;&gt;:core:model -->
<g id="edge18" class="edge">
<title>:core:network&#45;&gt;:core:model</title>
<path fill="none" stroke="black" d="M522.73,-73.12C537.75,-63.47 557.12,-51.04 573.5,-40.52"/>
<polygon fill="black" stroke="black" points="574.94,-43.75 581.47,-35.4 571.16,-37.86 574.94,-43.75"/>
</g>
<!-- :core:database&#45;&gt;:core:common -->
<g id="edge20" class="edge">
<title>:core:database&#45;&gt;:core:common</title>
<path fill="none" stroke="black" d="M184.66,-72.76C172.79,-63.73 157.8,-52.33 144.69,-42.35"/>
<polygon fill="black" stroke="black" points="146.82,-39.58 136.75,-36.31 142.58,-45.15 146.82,-39.58"/>
</g>
<!-- :core:database&#45;&gt;:core:model -->
<g id="edge19" class="edge">
<title>:core:database&#45;&gt;:core:model</title>
<path fill="none" stroke="black" d="M253.02,-77.55C261.64,-75.59 270.57,-73.66 279,-72 371.56,-53.77 479.71,-37.2 545.77,-27.61"/>
<polygon fill="black" stroke="black" points="545.9,-31.13 555.3,-26.24 544.9,-24.2 545.9,-31.13"/>
</g>
<!-- :core:datastore&#45;&gt;:core:common -->
<g id="edge22" class="edge">
<title>:core:datastore&#45;&gt;:core:common</title>
<path fill="none" stroke="black" d="M309.44,-76.24C269.89,-64.66 211.39,-47.52 168.7,-35.02"/>
<polygon fill="black" stroke="black" points="169.7,-31.67 159.12,-32.21 167.73,-38.38 169.7,-31.67"/>
</g>
<!-- :core:datastore&#45;&gt;:core:model -->
<g id="edge21" class="edge">
<title>:core:datastore&#45;&gt;:core:model</title>
<path fill="none" stroke="black" d="M398.12,-76.57C441.97,-64.48 508.54,-46.14 554.69,-33.42"/>
<polygon fill="black" stroke="black" points="555.5,-36.82 564.21,-30.79 553.64,-30.08 555.5,-36.82"/>
</g>
</g>
</svg>
